<svg width="53" height="65" viewBox="0 0 53 65" fill="none" xmlns="http://www.w3.org/2000/svg">
<path fill-rule="evenodd" clip-rule="evenodd" d="M29.827 17.1411C30.3026 12.4882 32.5268 3.50816 39.7771 6.31886C44.3902 8.10796 48.4177 13.518 47.441 18.1884C46.2166 24.0417 38.902 24.0498 33.9162 22.7237C32.4807 22.3425 31.0723 21.8518 29.6884 21.2865C29.6493 19.903 29.6862 18.5187 29.827 17.1411M0.148124 0.637155C6.49285 9.52788 15.6053 17.8008 26.1124 22.7782C26.3191 25.2075 26.7152 27.4965 27.164 29.4092C29.7723 40.5206 36.7231 52.1745 45.8011 60.0212C46.7934 60.8784 48.2315 60.1687 48.5129 59.1833C48.4267 59.7476 48.3328 60.311 48.2313 60.8735C46.6392 60.5551 45.1496 60.0183 43.6877 59.2265C42.7945 58.7424 41.9958 57.9952 41.0787 57.5819C40.5325 57.3356 40.2339 57.6188 39.6777 57.2765C39.5002 57.1673 39.2163 57.2868 39.3068 57.5061C39.5551 58.1062 39.3053 58.5928 39.5811 59.1837C40.015 60.1147 41.5218 61.2129 42.3649 61.7908C44.4646 63.2302 46.9103 64.1033 49.4598 64.5584C50.5247 64.7481 51.3933 64.0747 51.6526 63.1743C52.2886 60.9671 52.5819 58.6734 52.7102 56.3922C52.8208 54.4157 53.0859 52.1783 52.2612 50.3083C51.6155 48.8419 49.3667 48.9863 48.986 50.5198C48.5211 52.3911 48.9429 54.4363 48.8296 56.3602C48.7812 57.1851 48.6819 57.9989 48.5653 58.8101C48.5571 58.5482 48.4641 58.2791 48.2555 58.0231C41.5147 49.7523 34.8679 42.0554 31.6012 31.9833C30.7979 29.5098 30.2223 26.9647 29.9177 24.3975C30.156 24.4889 30.3922 24.5906 30.6327 24.6796C38.5484 27.5879 51.0308 27.1027 51.0367 16.8342C51.042 9.54579 41.5074 -1.07088 32.9591 3.59962C27.4973 6.58355 25.9247 13.1978 25.9655 19.5672C22.7735 17.9302 19.733 15.9871 16.8539 14.1038C10.8516 10.1788 5.42385 5.45103 0.533974 0.400621C0.339899 0.200522 -0.022726 0.398123 0.148124 0.637155" fill="white"/>
</svg>
