<svg width="33" height="33" viewBox="0 0 33 33" fill="none" xmlns="http://www.w3.org/2000/svg">
<path d="M8.71227 21.048C8.91562 21.3899 9.24647 21.6371 9.63203 21.7351C10.0176 21.8331 10.4263 21.7739 10.7682 21.5705L20.979 15.4981L19.6065 20.8984C19.5241 21.2782 19.5924 21.6752 19.7969 22.0057C20.0015 22.3362 20.3263 22.5744 20.703 22.6701C21.0797 22.7659 21.4788 22.7117 21.8163 22.5189C22.1538 22.3262 22.4033 22.01 22.5123 21.6369L24.7765 12.7277C24.8742 12.3424 24.8149 11.9341 24.6117 11.5924C24.4086 11.2508 24.0781 11.0037 23.6929 10.9056L14.7837 8.64136C14.5904 8.58489 14.3876 8.56794 14.1875 8.59153C13.9875 8.61511 13.7942 8.67875 13.6193 8.77865C13.4444 8.87854 13.2914 9.01264 13.1694 9.17295C13.0474 9.33327 12.959 9.5165 12.9094 9.71173C12.8598 9.90697 12.85 10.1102 12.8806 10.3093C12.9113 10.5084 12.9817 10.6993 13.0877 10.8706C13.1937 11.0418 13.3331 11.19 13.4976 11.3063C13.6621 11.4225 13.8484 11.5044 14.0452 11.5471L19.4455 12.9196L9.23478 18.992C8.52312 19.4153 8.28904 20.3363 8.71227 21.048Z" fill="white"/>
</svg>
