<svg width="33" height="38" viewBox="0 0 33 38" fill="none" xmlns="http://www.w3.org/2000/svg">
<path d="M25.7033 5.95968C25.4527 5.57593 23.2125 5.25346 20.6453 5.17823C16.6526 5.07382 15.9783 5.22779 15.7418 6.03915C15.0654 8.07259 16.0037 8.52937 20.6706 8.47981C25.7315 8.3499 27.0063 7.76158 25.7033 5.95968Z" fill="#9333EA"/>
<path d="M18.2492 18.2156C13.3299 14.977 11.8207 14.4972 11.9286 16.3132C11.9724 17.051 13.6525 18.4888 16.9721 20.6834C19.7573 22.5111 22.1785 23.9618 22.4622 23.9449C22.6892 23.9314 22.8791 23.2937 22.8353 22.556C22.7746 21.5345 21.6289 20.4636 18.2492 18.2156Z" fill="#9333EA"/>
<path d="M12.1477 28.1621C9.56468 23.9875 6.50125 20.3539 5.90062 20.7882C4.86285 21.5333 5.47814 23.2622 8.13421 26.7491C9.56086 28.7145 11.1078 30.7867 11.5455 31.4441C11.9832 32.1014 12.5277 32.6386 12.8114 32.6217C14.0031 32.5509 13.7216 30.6883 12.1477 28.1621Z" fill="#9333EA"/>
</svg>
