<svg width="202" height="56" viewBox="0 0 202 56" fill="none" xmlns="http://www.w3.org/2000/svg">
<path d="M195.84 18.7343C195.443 15.4887 193.312 12.8592 190.551 11.7909C186.964 10.3499 183.055 12.4882 180.098 14.5626C176.609 16.9376 173.369 19.6834 169.555 21.1833C165.647 22.6997 161.806 22.7539 158.127 20.7074C156.864 19.9972 155.571 19.0851 154.15 19.2315C154.056 19.248 153.603 19.4314 153.431 19.5653C152.836 20.0843 152.836 20.0843 152.35 20.6878C150.751 22.834 149.807 25.4867 148.099 27.5484C145.905 30.2137 142.904 31.3634 139.581 30.3939C136.664 29.5604 134.375 27.1657 131.615 26.0973C129.26 25.1648 127.275 26.0321 125.287 27.5214C122.862 29.295 120.795 31.5236 118.385 33.3981C115.787 35.3055 113.019 36.7249 109.804 36.4619C108.055 36.3551 106.309 35.6264 104.641 34.7802C103.19 34.1029 101.71 33.2238 100.149 33.084C97.5109 32.8229 95.3172 35.4882 93.3911 37.3811C90.9487 39.6757 87.961 41.5482 84.6057 40.9989C81.3441 40.4331 79.119 37.8201 76.1252 36.482C73.0222 35.0595 70.0805 37.2347 67.3127 38.6541C65.6238 39.5729 63.8258 40.4073 61.9512 40.7371C59.9829 41.0834 58.001 40.7069 56.0039 40.2294C54.0068 39.752 52.0096 39.2745 49.9954 39.3181C47.7936 39.3947 45.6531 39.8749 43.4974 40.2542C34.2028 41.7859 24.9083 43.3176 15.7074 44.8329C13.4579 45.2286 11.1931 45.5235 8.94356 45.9193C5.94421 46.447 5.17832 41.4016 8.17767 40.8739C17.566 39.3257 27.048 37.761 36.4362 36.2128C40.9506 35.5221 45.5912 34.3948 50.1821 34.2087C52.3838 34.1321 54.4747 34.5931 56.5809 35.1549C58.3906 35.6654 60.1696 35.974 62.0135 35.4423C65.6077 34.3955 68.4575 31.6149 72.2067 30.9552C75.9559 30.2956 78.9327 32.1547 82.0491 34.3001C83.1243 35.0433 84.4022 35.8545 85.6666 35.9429C86.8373 36.0477 87.8071 35.4627 88.7616 34.7767C91.3437 32.7684 93.3346 30.0352 96.3205 28.7846C100.026 27.2003 103.331 28.6908 106.746 30.2656C107.463 30.5538 108.196 30.9429 108.992 31.1137C109.6 31.3175 110.474 31.3709 110.849 31.3049C112.177 31.175 113.084 30.8082 114.398 29.9554C119.418 26.8963 123.278 20.6227 129.805 20.5104C133.162 20.4378 135.888 22.5482 138.647 24.2385C139.706 24.8809 140.875 25.6076 142.109 25.4942C142.499 25.5291 142.859 25.3622 143.312 25.1789C143.578 25.0285 144.016 24.7442 144.424 24.2581C144.267 24.4929 144.737 23.7885 144.816 23.6711C144.972 23.4363 145.223 23.185 145.364 22.8493C145.757 22.2623 146.055 21.6918 146.432 21.0039C147.122 19.8464 147.703 18.6045 148.487 17.4305C150.541 14.479 153.606 13.111 156.944 14.1814C158.66 14.7083 160.093 15.9066 161.824 16.5344C163.462 17.1788 165.258 16.9663 166.914 16.4677C170.774 15.2705 173.999 12.4239 177.316 10.1826C180.977 7.67367 185.167 5.48586 189.678 6.03908C193.299 6.43799 196.728 8.73572 198.67 12.0201C199.695 13.7046 200.455 15.5394 200.668 17.574C201.016 21.1388 196.33 21.9634 195.84 18.7343Z" fill="#9333EA"/>
<path d="M18.5984 36.6555C13.782 39.1606 9.36935 42.4234 5.42354 46.2258C5.20909 44.8131 4.97933 43.2994 4.76488 41.8867C11.1294 43.875 17.5418 45.5441 24.0019 46.894C25.297 47.1841 26.2307 48.2631 26.0702 49.7418C25.9728 51.0022 24.72 52.2586 23.4249 51.9685C16.4808 50.6001 9.66296 48.7952 2.98657 46.6545C1.16156 46.0432 1.0598 43.471 2.3279 42.3155C6.60268 38.1444 11.3749 34.7147 16.5509 32.0428C19.4124 30.6069 21.3662 35.2361 18.5984 36.6555Z" fill="#9333EA"/>
</svg>
